<?xml version="1.0" encoding="UTF-8" standalone="no"?>
<svg width="176px" height="70px" viewBox="0 0 176 70" version="1.1" xmlns="http://www.w3.org/2000/svg" xmlns:xlink="http://www.w3.org/1999/xlink">
    <!-- Generator: Sketch 39 (31667) - http://www.bohemiancoding.com/sketch -->
    <title>Slice</title>
    <desc>Created with Sketch.</desc>
    <defs></defs>
    <g id="Page-1" stroke="none" stroke-width="1" fill="none" fill-rule="evenodd">
        <g id="UI_vow_escritorio" transform="translate(-8632.000000, -4901.000000)">
            <g id="Group-874" transform="translate(0.000000, 32.000000)">
                <path d="M8796.459,4884.75 C8793.38,4884.75 8790.62,4886.54 8789.5,4889.4 L8781.059,4911.13 L8771.99,4884.75 L8760.32,4884.75 C8757.98,4884.75 8755.939,4886.23 8755.35,4888.49 L8751.789,4902.35 L8747.23,4884.75 L8731.65,4884.75 L8742.66,4927.27 C8743.43,4930.24 8746.51,4932.26 8749.57,4932.26 L8754,4932.21 C8758,4932.21 8760.64,4929.69 8761.57,4926.06 L8765.449,4910.33 L8771.56,4928.67 C8772.34,4930.95 8774.39,4932.75 8776.81,4932.75 L8783.25,4932.75 C8786.32,4932.75 8789.08,4930.7 8790.199,4927.83 L8806.93,4884.75 L8796.459,4884.75" id="Fill-647" fill="#FFFFFF"></path>
                <path d="M8707.43,4917.95 C8702.04,4917.95 8697.67,4913.58 8697.67,4908.2 C8697.67,4902.81 8702.04,4898.44 8707.43,4898.44 C8712.809,4898.44 8717.18,4902.81 8717.18,4908.2 C8717.18,4913.58 8712.809,4917.95 8707.43,4917.95 L8707.43,4917.95 Z M8707.699,4884.51 C8694.529,4884.51 8683.86,4895.19 8683.86,4908.36 C8683.86,4921.53 8694.529,4932.21 8707.699,4932.21 C8720.869,4932.21 8731.55,4921.53 8731.55,4908.36 C8731.55,4895.19 8720.869,4884.51 8707.699,4884.51 L8707.699,4884.51 Z" id="Fill-648" fill="#FFFFFF"></path>
                <path d="M8672.029,4884.75 C8669.68,4884.75 8667.58,4886.09 8666.73,4888.27 L8657.84,4911.02 L8657.811,4910.9 L8650.67,4890.2 C8649.529,4886.88 8646.41,4884.75 8642.91,4884.75 L8633.19,4884.75 L8647.06,4925.16 C8647.72,4927.09 8648.92,4928.66 8650.44,4929.89 C8652.299,4931.39 8654.639,4932.24 8657.04,4932.24 L8663.28,4932.21 C8664.4,4932.21 8665.4,4931.63 8665.799,4930.59 L8683.71,4884.75 L8672.029,4884.75" id="Fill-649" fill="#FFFFFF"></path>
                <polyline id="Fill-653" fill="#0A0A08" points="9064.5 5993.25 9064.5 5992.75 8367 5992.75 8367 4798.75 9064 4798.75 9064 5993.25 9064.5 5993.25 9064.5 5992.75 9064.5 5993.25 9065 5993.25 9065 4797.75 8366 4797.75 8366 5993.75 9065 5993.75 9065 5993.25 9064.5 5993.25"></polyline>
            </g>
        </g>
    </g>
</svg>